<?xml version="1.0" encoding="UTF-8"?>
<svg version="1.1" xmlns="http://www.w3.org/2000/svg" width="500" height="500">
<path d="M0 0 C165 0 330 0 500 0 C500 165 500 330 500 500 C335 500 170 500 0 500 C0 335 0 170 0 0 Z " fill="#000000" transform="translate(0,0)"/>
<path d="M0 0 C0 56.43 0 112.86 0 171 C-5.94 171 -11.88 171 -18 171 C-18 142.62 -18 114.24 -18 85 C-20.97 84.01 -23.94 83.02 -27 82 C-28.32 81.34 -29.64 80.68 -31 80 C-31.25603583 72.72443384 -31.4508862 65.4498533 -31.56993389 58.17067814 C-31.62710713 54.78948324 -31.70447678 51.41139098 -31.82983398 48.03198242 C-31.96391757 44.13638832 -32.02578359 40.24514348 -32.07421875 36.34765625 C-32.13099289 35.1473024 -32.18776703 33.94694855 -32.2462616 32.71022034 C-32.25003272 27.53357025 -32.13925406 24.31013919 -28.6605835 20.30967712 C-25.86742692 18.00284034 -23.02837037 15.98434574 -20 14 C-18.26072782 12.69614479 -16.52768208 11.3838846 -14.8046875 10.05859375 C-13.16367949 8.84854447 -11.520472 7.64147195 -9.875 6.4375 C-8.60269531 5.49680664 -8.60269531 5.49680664 -7.3046875 4.53710938 C-1.12986471 0 -1.12986471 0 0 0 Z " fill="#FAFAFA" transform="translate(235,148)"/>
<path d="M0 0 C0 39.93 0 79.86 0 121 C-8.58 121 -17.16 121 -26 121 C-26.36236409 107.77789172 -26.65549043 94.55911056 -26.82899475 81.33314896 C-26.9122963 75.19075471 -27.02513505 69.05194938 -27.20703125 62.91162109 C-27.38167747 56.97848419 -27.47670031 51.04878344 -27.51803589 45.11327362 C-27.5474643 42.85627891 -27.60494258 40.5994601 -27.69168091 38.34394073 C-28.3249925 21.18334376 -28.3249925 21.18334376 -24.4821167 15.92173767 C-20.80250643 12.2896138 -16.65072722 9.69362015 -12.12716675 7.23818207 C-9.09052133 5.4706103 -6.39405075 3.32696223 -3.6499176 1.14046097 C-2 0 -2 0 0 0 Z " fill="#F6F6F6" transform="translate(307,198)"/>
<path d="M0 0 C0 33 0 66 0 100 C-10.95798845 99.00381923 -14.4477909 97.79179905 -21.375 90.5 C-24.44609127 85.7752442 -25.26118474 81.11919766 -25.51269531 75.55834961 C-25.5706427 74.29941391 -25.62859009 73.04047821 -25.68829346 71.74339294 C-25.86979972 66.7488223 -26.0030076 61.75289853 -26.09688187 56.75592709 C-26.16828047 52.97377064 -26.27447839 49.20017728 -26.46777344 45.42211914 C-27.68392323 21.07017619 -27.68392323 21.07017619 -23.26538086 14.3694458 C-19.14926155 10.1859085 -14.46914291 7.43966875 -9.15856934 5.01809692 C-6.59731736 3.8100733 -2.65783581 0 0 0 Z " fill="#F9F9F9" transform="translate(179,219)"/>
<path d="M0 0 C1.32 0.33 2.64 0.66 4 1 C4 47.2 4 93.4 4 141 C2.68 141 1.36 141 0 141 C0 94.47 0 47.94 0 0 Z " fill="#D4D4D4" transform="translate(246,178)"/>
<path d="M0 0 C1.32 0.33 2.64 0.66 4 1 C4 45.88 4 90.76 4 137 C2.68 137 1.36 137 0 137 C0 91.79 0 46.58 0 0 Z " fill="#D9D9D9" transform="translate(256,182)"/>
<path d="M0 0 C0.99 0 1.98 0 3 0 C3 43.89 3 87.78 3 133 C2.01 133 1.02 133 0 133 C0 89.11 0 45.22 0 0 Z " fill="#FEFEFE" transform="translate(267,186)"/>
<path d="M0 0 C1.32 0.33 2.64 0.66 4 1 C4 32.68 4 64.36 4 97 C2.68 97 1.36 97 0 97 C0 64.99 0 32.98 0 0 Z " fill="#D9D9D9" transform="translate(315,222)"/>
<path d="M0 0 C1.32 0.33 2.64 0.66 4 1 C4.09259436 11.63958519 4.16371125 22.27907487 4.20724869 32.9189806 C4.22814232 37.85929893 4.2564923 42.79934204 4.30175781 47.73950195 C4.34515233 52.5051768 4.36912372 57.27058658 4.37950897 62.03644371 C4.38691187 63.85658633 4.40136772 65.67671409 4.42292023 67.49674416 C4.45186976 70.04217747 4.45595963 72.5865092 4.45410156 75.13208008 C4.46848267 75.88805481 4.48286377 76.64402954 4.49768066 77.4229126 C4.48101807 79.52619934 4.48101807 79.52619934 4 83 C2.68 83.99 1.36 84.98 0 86 C0 57.62 0 29.24 0 0 Z " fill="#D8D8D8" transform="translate(336,229)"/>
<path d="M0 0 C0.99 0.33 1.98 0.66 3 1 C3 31.03 3 61.06 3 92 C1.515 92.495 1.515 92.495 0 93 C0 62.31 0 31.62 0 0 Z " fill="#FEFEFE" transform="translate(326,226)"/>
<path d="M0 0 C0.99 0.33 1.98 0.66 3 1 C3 25.09 3 49.18 3 74 C2.01 74 1.02 74 0 74 C0 49.58 0 25.16 0 0 Z " fill="#FEFEFE" transform="translate(187,245)"/>
<path d="M0 0 C0.99 0.33 1.98 0.66 3 1 C3 23.77 3 46.54 3 70 C2.01 70 1.02 70 0 70 C0 46.9 0 23.8 0 0 Z " fill="#F7F7F7" transform="translate(197,249)"/>
<path d="M0 0 C0.99 0 1.98 0 3 0 C3 21.45 3 42.9 3 65 C2.01 65 1.02 65 0 65 C0 43.55 0 22.1 0 0 Z " fill="#F8F8F8" transform="translate(208,254)"/>
<path d="M0 0 C6.40818182 -0.36272727 6.40818182 -0.36272727 8.9375 1.1875 C10.38718434 3.66049093 10.42317323 5.17884512 10 8 C8.9375 9.8125 8.9375 9.8125 7 11 C3.3125 11.1875 3.3125 11.1875 0 11 C0 7.37 0 3.74 0 0 Z " fill="#DBDBDB" transform="translate(243,346)"/>
<path d="M0 0 C0.66 0 1.32 0 2 0 C2.66 1.65 3.32 3.3 4 5 C4.66 3.68 5.32 2.36 6 1 C7.32 1 8.64 1 10 1 C10.66 2.32 11.32 3.64 12 5 C12.66 3.35 13.32 1.7 14 0 C14.66 0 15.32 0 16 0 C15.32829194 3.8063457 14.27253436 7.35206816 13 11 C12.01 11 11.02 11 10 11 C9.67 8.69 9.34 6.38 9 4 C8.34 4 7.68 4 7 4 C6.67 6.31 6.34 8.62 6 11 C5.01 11 4.02 11 3 11 C2.01 7.37 1.02 3.74 0 0 Z " fill="#C0C0C0" transform="translate(266,346)"/>
<path d="M0 0 C2.64 0 5.28 0 8 0 C8 0.66 8 1.32 8 2 C6.35 2 4.7 2 3 2 C3 2.66 3 3.32 3 4 C4.65 4 6.3 4 8 4 C8 4.99 8 5.98 8 7 C6.35 7 4.7 7 3 7 C3 7.66 3 8.32 3 9 C4.98 9 6.96 9 9 9 C9 9.66 9 10.32 9 11 C6.03 11 3.06 11 0 11 C0 7.37 0 3.74 0 0 Z " fill="#B7B7B7" transform="translate(335,346)"/>
<path d="M0 0 C2.31 0 4.62 0 7 0 C7.66 1.32 8.32 2.64 9 4 C8.34 4 7.68 4 7 4 C7 3.34 7 2.68 7 2 C5.35 2 3.7 2 2 2 C2 2.99 2 3.98 2 5 C3.32 5.33 4.64 5.66 6 6 C4.68 6 3.36 6 2 6 C2 6.99 2 7.98 2 9 C3.65 9 5.3 9 7 9 C7 8.01 7 7.02 7 6 C7.66 6 8.32 6 9 6 C8.67 7.65 8.34 9.3 8 11 C5.36 11 2.72 11 0 11 C0 7.37 0 3.74 0 0 Z " fill="#DFDFDF" transform="translate(157,346)"/>
<path d="M0 0 C0.66 0 1.32 0 2 0 C2.33 2.64 2.66 5.28 3 8 C4.32 8 5.64 8 7 8 C7.33 5.36 7.66 2.72 8 0 C8.66 0 9.32 0 10 0 C10.05399736 1.45792884 10.09279177 2.91642712 10.125 4.375 C10.14820313 5.18710937 10.17140625 5.99921875 10.1953125 6.8359375 C10 9 10 9 8 11 C5 11.3125 5 11.3125 2 11 C-0.67927341 6.98108988 -0.15601248 4.75838077 0 0 Z " fill="#DDDDDD" transform="translate(180,346)"/>
<path d="M0 0 C1.98 0 3.96 0 6 0 C6.33 0.66 6.66 1.32 7 2 C5.02 2 3.04 2 1 2 C1 2.66 1 3.32 1 4 C2.98 4.66 4.96 5.32 7 6 C7 7.32 7 8.64 7 10 C4.69 10.33 2.38 10.66 0 11 C0 10.01 0 9.02 0 8 C1.65 8.33 3.3 8.66 5 9 C5 8.34 5 7.68 5 7 C3.02 6.34 1.04 5.68 -1 5 C-0.67 3.35 -0.34 1.7 0 0 Z " fill="#DEDEDE" transform="translate(314,346)"/>
<path d="M0 0 C2.475 0.495 2.475 0.495 5 1 C5.625 2.875 5.625 2.875 6 5 C5.34 5.66 4.68 6.32 4 7 C2.68 7 1.36 7 0 7 C0 4.69 0 2.38 0 0 Z " fill="#060606" transform="translate(245,348)"/>
<path d="M0 0 C1.65 0 3.3 0 5 0 C5.93423645 3.01031744 6.04449911 3.86650268 5 7 C3.35 7 1.7 7 0 7 C0 4.69 0 2.38 0 0 Z " fill="#434343" transform="translate(159,348)"/>
<path d="M0 0 C0.66 0 1.32 0 2 0 C2 2.97 2 5.94 2 9 C3.65 9 5.3 9 7 9 C7 9.66 7 10.32 7 11 C4.69 11 2.38 11 0 11 C0 7.37 0 3.74 0 0 Z " fill="#DCDCDC" transform="translate(222,346)"/>
<path d="M0 0 C0.66 0 1.32 0 2 0 C1.32829194 3.8063457 0.27253436 7.35206816 -1 11 C-1.99 11 -2.98 11 -4 11 C-3.21681311 7.08406554 -1.60820142 3.63593365 0 0 Z " fill="#D3D3D3" transform="translate(280,346)"/>
<path d="M0 0 C0.66 0 1.32 0 2 0 C5.28571429 7.42857143 5.28571429 7.42857143 6 11 C5.01 11 4.02 11 3 11 C2.01 7.37 1.02 3.74 0 0 Z " fill="#DBDBDB" transform="translate(266,346)"/>
<path d="M0 0 C0.66 0 1.32 0 2 0 C2.103125 1.258125 2.20625 2.51625 2.3125 3.8125 C2.64858808 6.60499657 2.80025876 7.74433121 4.5625 10 C5.036875 10.33 5.51125 10.66 6 11 C3.5625 10.625 3.5625 10.625 1 10 C-0.60725635 6.78548731 -0.05748185 3.56387464 0 0 Z " fill="#CFCFCF" transform="translate(180,346)"/>
<path d="M0 0 C1.4540625 0.0309375 1.4540625 0.0309375 2.9375 0.0625 C3.2675 0.7225 3.5975 1.3825 3.9375 2.0625 C1.9575 2.0625 -0.0225 2.0625 -2.0625 2.0625 C-2.0625 2.7225 -2.0625 3.3825 -2.0625 4.0625 C-1.4025 4.3925 -0.7425 4.7225 -0.0625 5.0625 C-1.0525 5.3925 -2.0425 5.7225 -3.0625 6.0625 C-3.44468767 4.40635343 -3.77645102 2.73792976 -4.0625 1.0625 C-3.0625 0.0625 -3.0625 0.0625 0 0 Z " fill="#D3D3D3" transform="translate(317.0625,345.9375)"/>
<path d="M0 0 C0.33 0 0.66 0 1 0 C1.22732116 2.80362763 1.34081872 4.46186517 -0.1875 6.875 C-2 8 -2 8 -4.6875 7.6875 C-5.450625 7.460625 -6.21375 7.23375 -7 7 C-4.66785852 5.79371992 -2.50357861 4.8345262 0 4 C0 2.68 0 1.36 0 0 Z " fill="#BDBDBD" transform="translate(252,349)"/>
</svg>
